<svg width="20" height="21" viewBox="0 0 20 21" fill="none" xmlns="http://www.w3.org/2000/svg">
<g id="Vertical container">
<path id="Vector" d="M19.8023 10.7297C19.8023 10.0499 19.7472 9.3665 19.6296 8.69775H10.1973V12.5486H15.5987C15.3746 13.7905 14.6544 14.8892 13.5998 15.5873V18.086H16.8223C18.7146 16.3443 19.8023 13.7722 19.8023 10.7297Z" fill="#718295"/>
<path id="Vector_2" d="M10.1977 20.5C12.8948 20.5 15.1692 19.6145 16.8264 18.0859L13.6039 15.5873C12.7074 16.1973 11.5499 16.5427 10.2014 16.5427C7.59254 16.5427 5.38053 14.7826 4.58685 12.4163H1.26147V14.992C2.95907 18.3689 6.41672 20.5 10.1977 20.5Z" fill="#718295"/>
<path id="Vector_3" d="M4.58308 12.4168C4.16419 11.1748 4.16419 9.82995 4.58308 8.58799V6.01221H1.26138C-0.156952 8.83785 -0.156952 12.1669 1.26138 14.9925L4.58308 12.4168Z" fill="#718295"/>
<path id="Vector_4" d="M10.1977 4.45781C11.6234 4.43576 13.0013 4.97223 14.0338 5.95698L16.8889 3.10194C15.0811 1.40434 12.6816 0.471034 10.1977 0.50043C6.41672 0.50043 2.95907 2.63161 1.26147 6.0121L4.58317 8.58788C5.37318 6.21786 7.58887 4.45781 10.1977 4.45781Z" fill="#718295"/>
</g>
</svg>
