<svg width="20" height="21" viewBox="0 0 20 21" fill="none" xmlns="http://www.w3.org/2000/svg">
<g id="Button">
<path id="Shape" d="M14.0419 0.5H5.95811C2.67279 0.5 0 3.17279 0 6.45811V14.5419C0 17.8272 2.67279 20.5 5.95811 20.5H14.0419C17.3272 20.5 20 17.8272 20 14.5419V6.45811C20 3.17279 17.3272 0.5 14.0419 0.5ZM17.988 14.5419C17.988 16.7213 16.2213 18.488 14.0419 18.488H5.95811C3.77875 18.488 2.012 16.7213 2.012 14.5419V6.45811C2.012 4.27871 3.77875 2.512 5.95811 2.512H14.0419C16.2213 2.512 17.988 4.27871 17.988 6.45811V14.5419Z" fill="#718295"/>
<path id="Shape_2" d="M9.99998 5.32715C7.14774 5.32715 4.82727 7.64762 4.82727 10.4998C4.82727 13.352 7.14774 15.6725 9.99998 15.6725C12.8522 15.6725 15.1727 13.3521 15.1727 10.4998C15.1727 7.64759 12.8522 5.32715 9.99998 5.32715ZM9.99998 13.6606C8.25435 13.6606 6.83927 12.2455 6.83927 10.4999C6.83927 8.75423 8.25439 7.33915 9.99998 7.33915C11.7456 7.33915 13.1607 8.75423 13.1607 10.4999C13.1607 12.2455 11.7456 13.6606 9.99998 13.6606Z" fill="#718295"/>
<path id="Shape_3" d="M15.1826 6.60561C15.8671 6.60561 16.422 6.05069 16.422 5.36616C16.422 4.68163 15.8671 4.12671 15.1826 4.12671C14.498 4.12671 13.9431 4.68163 13.9431 5.36616C13.9431 6.05069 14.498 6.60561 15.1826 6.60561Z" fill="#718295"/>
</g>
</svg>
