<svg width="158" height="477" viewBox="0 0 158 477" fill="none" xmlns="http://www.w3.org/2000/svg">
<path opacity="0.06" d="M0.792513 244.304L2.34762 252.548L15.7469 282.958V289.141L23.215 306.66V315.935L31.7139 335.262L36.0899 348.659L39.4352 350.214L37.6269 362.834H44.3356V376.23L52.5812 392.99L50.773 397.89L57.4816 412.064V418.247L64.9498 436.038L68.2951 447.121L73.1955 453.051L71.6404 469.539L77.0471 476.5L82.2006 469.539L85.8172 461.548L87.6254 449.435L89.6869 448.657V438.352L95.618 431.645L92.779 415.915L97.4262 409.479L98.7101 400.204L107.209 392.213L103.864 383.969V375.724C103.864 375.724 108.24 374.441 107.209 373.663C106.178 372.886 106.178 365.419 106.178 365.419L101.639 354.083L107.372 344.555L112.363 327.542L118.547 321.865L116.485 314.904L124.478 303.044L129.378 289.647L132.724 277.787L125.762 262.582L125.509 252.277L130.915 244.285L129.36 234.758L127.552 226.766L129.36 209.753L134.261 200.479L136.846 193.518L143.031 191.457V177.029L142 171.877L141.494 152.55L143.049 148.934L144.857 140.942L146.412 123.423L143.826 112.865L146.412 107.188V99.7209L143.573 97.1355L143.826 88.1138L147.949 83.4673V72.3845L145.888 67.7381L144.079 59.2407L145.635 53.0574L149.504 51.7738V33.7303L154.658 27.8002V16.7174L157.244 8.21999V0.5H145.128V10.8054C145.128 10.8054 142.036 20.8576 131.476 23.9493C120.916 27.0409 117.823 24.7267 117.823 24.7267L111.892 24.9798L105.961 25.2329L96.1605 26.7878L94.3522 33.7484L93.8278 45.3374L91.7664 47.1454L91.242 53.5817L82.2187 57.957L79 61.3017L75.5281 80.6288L76.812 88.8731L72.1648 96.6112C72.1648 96.6112 70.6097 113.1 67.5175 121.868C64.4254 130.637 61.5864 140.418 59.525 147.903C57.4636 155.37 57.9699 152.278 52.8163 162.855C47.6628 173.413 45.3482 180.898 44.5706 185.798C43.7931 190.698 15.4395 231.666 0.756348 244.304H0.792513Z" fill="#529D34"/>
</svg>
